# Blender v2.92.0 OBJ File: ''
# www.blender.org
mtllib wing.mtl
o Mesh_0.001
v 1.641281 0.004045 -2.830639
v 1.686018 0.007362 -2.675946
v 1.545379 0.003927 -2.786300
v 1.742332 0.005661 -2.868094
v 1.957164 0.012018 -2.900174
v 2.154043 0.017568 -2.754511
v 1.936822 0.012425 -2.765546
v 2.201986 0.017922 -2.865379
v 2.268584 0.018899 -2.409258
v 2.247641 0.019478 -2.625049
v 2.471750 0.020749 -2.536862
v 2.463238 0.021719 -2.600514
v 2.469501 0.018951 -2.464687
v 2.452648 0.019155 -2.358330
v 1.367465 0.004109 -2.687264
v 1.391728 0.007964 -2.489999
v 1.293382 0.004664 -2.626201
v 1.222354 0.005335 -2.564600
v 0.846648 0.017899 -2.234419
v 0.929925 0.024983 -2.399337
v 0.988935 0.021053 -2.236865
v 0.782368 0.020722 -2.364843
v 0.807345 0.015695 -2.193844
v 0.633634 0.013276 -2.237451
v 0.696193 0.016810 -2.303386
v 0.698163 0.005888 -1.980213
v 0.575930 0.008909 -2.142660
v 0.530864 0.004125 -2.026555
v 0.496387 -0.003434 -1.900303
v 0.468754 -0.003434 -1.772740
v 0.571869 -0.002700 -1.505900
v 2.142736 0.019640 -2.090178
v 2.338915 0.020942 -2.075540
v 2.293443 0.021515 -1.999884
v 2.377740 0.020012 -2.155792
v 1.873076 0.018765 -1.695782
v 1.647574 0.016308 -1.425751
v 1.700287 0.019212 -1.801527
v 1.471871 0.014380 -1.528363
v 1.264667 0.011541 -1.068505
v 1.139637 0.008971 -1.147443
v 1.913007 0.020449 -1.502985
v 1.988955 0.021174 -1.589561
v 2.059203 0.021628 -1.672109
v 1.827476 0.019528 -1.404404
v 1.734786 0.018473 -1.298803
v 1.637358 0.017347 -1.191143
v 1.532996 0.016089 -1.085674
v 0.439292 -0.002453 -1.613093
v 0.409886 0.001091 -1.466496
v 1.419506 0.014641 -0.986642
v 1.302128 0.013106 -0.891352
v 0.383085 0.000754 -1.320565
v 0.550989 -0.001273 -1.161900
v 0.364523 0.011163 -1.181920
v 1.186102 0.011590 -0.797107
v 0.969681 0.007344 -0.894427
v 1.075147 0.010147 -0.706912
v 0.648190 0.004555 -0.361188
v 0.756022 0.008485 -0.660395
v 0.900736 0.007888 -0.564976
v 0.536500 0.004985 -0.437903
v 0.393197 0.003312 -0.315740
v 0.494336 0.002512 -0.241719
v 0.364946 0.000776 -0.145519
v 0.287841 -0.000257 -0.202911
v 0.189325 -0.001999 -0.115826
v 0.251704 -0.000770 -0.065438
v 0.153722 -0.002139 -0.002652
v 0.107639 -0.003135 -0.041210
v 0.004332 -0.004725 -0.003448
v -0.017172 -0.004678 0.077547
v -0.038188 -0.005069 0.072188
v 0.005848 -0.004260 0.081368
v 0.070893 -0.003325 0.044696
v 2.311537 0.020887 -2.813830
v 2.395808 0.022446 -2.746925
v 2.160773 0.016764 -2.458612
v 2.099151 0.016108 -2.692170
v -0.071363 -0.005907 0.020878
v -0.066589 -0.011004 -0.071918
v 1.860879 0.009468 -2.893725
v 0.989450 0.025807 -2.391142
v 1.050826 0.023020 -2.362303
v 1.169029 0.005678 -2.511634
v 1.219560 0.008899 -2.311159
v 1.122804 0.005937 -2.453294
v 1.849681 0.017278 -1.945773
v 2.002348 0.017457 -2.164917
v 1.996577 0.019232 -1.860593
v 2.245003 0.021696 -1.923637
v 2.190697 0.021699 -1.844103
v 1.453992 0.004093 -2.741539
v 2.422922 0.019284 -2.255166
v 1.086219 0.006131 -2.394796
v 2.127600 0.021740 -1.758593
v 2.433364 0.022348 -2.684145
v -0.056530 -0.005472 0.055570
v 0.302456 0.010357 -0.959458
v 1.818990 0.009995 -2.615074
v 1.983944 0.013262 -2.539561
v 1.771415 0.013867 -2.287862
v 1.595278 0.011129 -2.381634
v 1.585192 0.013761 -2.099141
v 1.424455 0.011624 -2.192347
v 1.441182 0.019883 -1.960096
v 1.282575 0.020293 -2.057161
v 1.057084 0.009827 -1.770601
v 1.221929 0.011637 -1.674331
v 0.802276 0.002036 -1.360434
v 0.954089 0.005157 -1.264587
v 0.648908 0.000742 -1.099346
v 0.773914 0.003315 -1.019489
v 0.448869 0.009753 -0.862919
v 0.596197 0.009145 -0.765777
v 0.302436 0.005887 -0.598670
v 0.423819 0.005419 -0.515298
v 0.216771 0.004708 -0.444862
v 0.300603 0.004045 -0.383507
v 0.130621 -0.002364 -0.319936
v 0.207579 -0.001332 -0.262653
v 0.065943 -0.004430 -0.215490
v 0.131111 -0.003146 -0.162850
v 0.018048 -0.005071 -0.116172
v 0.057811 -0.004212 -0.082901
v 1.115393 0.020726 -2.159474
v 0.881114 0.007896 -1.873369
v 0.693805 -0.000194 -1.428917
v 0.205176 0.006262 -0.665474
v 0.143407 0.005288 -0.498555
v 0.072039 -0.003149 -0.363541
v 0.013108 -0.005471 -0.258169
v -0.033855 -0.006192 -0.159599
vt 0.529811 0.818936
vt 0.516161 0.840656
vt 0.514376 0.812239
vt 0.544973 0.826980
vt 0.571565 0.849126
vt 0.575134 0.887975
vt 0.553407 0.860981
vt 0.593393 0.881919
vt 0.546247 0.938186
vt 0.569674 0.912826
vt 0.582952 0.948811
vt 0.589617 0.941054
vt 0.574132 0.956196
vt 0.559707 0.965464
vt 0.483748 0.801592
vt 0.462834 0.825379
vt 0.468645 0.799253
vt 0.453807 0.797330
vt 0.374365 0.787760
vt 0.402768 0.780061
vt 0.389816 0.804376
vt 0.382986 0.766259
vt 0.365368 0.787413
vt 0.352056 0.762175
vt 0.366532 0.762583
vt 0.328381 0.797172
vt 0.334669 0.765404
vt 0.316095 0.772396
vt 0.297416 0.781723
vt 0.279351 0.792015
vt 0.258656 0.832620
vt 0.494988 0.957054
vt 0.514049 0.981920
vt 0.500240 0.984538
vt 0.527700 0.978026
vt 0.419535 0.966854
vt 0.363532 0.968772
vt 0.413727 0.935101
vt 0.357027 0.937015
vt 0.280464 0.961317
vt 0.276528 0.938090
vt 0.400890 0.992068
vt 0.419224 0.991893
vt 0.436475 0.991476
vt 0.380111 0.992391
vt 0.357739 0.992613
vt 0.334617 0.992497
vt 0.311018 0.991325
vt 0.257279 0.805498
vt 0.236752 0.817599
vt 0.287214 0.988387
vt 0.263445 0.984595
vt 0.216590 0.829946
vt 0.215626 0.866739
vt 0.198080 0.842479
vt 0.239946 0.980854
vt 0.228465 0.944844
vt 0.217472 0.977297
vt 0.131123 0.963580
vt 0.178010 0.944451
vt 0.182124 0.971752
vt 0.128296 0.942185
vt 0.098571 0.938270
vt 0.100602 0.958128
vt 0.075432 0.953105
vt 0.073981 0.937864
vt 0.053169 0.935534
vt 0.053880 0.948287
vt 0.035996 0.943427
vt 0.035627 0.933863
vt 0.020121 0.925701
vt 0.008261 0.931827
vt 0.006645 0.928774
vt 0.010272 0.934953
vt 0.021554 0.938709
vt 0.598886 0.900409
vt 0.599871 0.917520
vt 0.540679 0.920137
vt 0.561903 0.888057
vt 0.009151 0.919371
vt 0.020608 0.909974
vt 0.560589 0.838362
vt 0.408128 0.787983
vt 0.411197 0.798343
vt 0.441871 0.796602
vt 0.423258 0.823845
vt 0.430058 0.797260
vt 0.446738 0.937533
vt 0.488977 0.932440
vt 0.452212 0.964037
vt 0.486047 0.986868
vt 0.470842 0.988850
vt 0.499368 0.806125
vt 0.544297 0.972864
vt 0.419249 0.799061
vt 0.453997 0.990425
vt 0.596391 0.928639
vt 0.006644 0.924832
vt 0.165117 0.858885
vt 0.523028 0.862917
vt 0.531547 0.890533
vt 0.479090 0.891950
vt 0.471549 0.861068
vt 0.436882 0.889813
vt 0.430893 0.860813
vt 0.405018 0.887485
vt 0.399686 0.858338
vt 0.341670 0.862045
vt 0.347773 0.891839
vt 0.265909 0.875421
vt 0.270688 0.903622
vt 0.218629 0.885005
vt 0.222462 0.908325
vt 0.169279 0.886506
vt 0.173467 0.914300
vt 0.122372 0.897348
vt 0.125444 0.920600
vt 0.095027 0.903628
vt 0.096711 0.920089
vt 0.071022 0.906787
vt 0.072470 0.921999
vt 0.051764 0.910309
vt 0.052506 0.923632
vt 0.034910 0.915270
vt 0.035229 0.923522
vt 0.394067 0.827615
vt 0.335155 0.830239
vt 0.262494 0.855271
vt 0.119910 0.878717
vt 0.093554 0.889223
vt 0.069919 0.895207
vt 0.051162 0.899507
vt 0.034495 0.904499
vn 0.0162 -0.9997 0.0168
vn 0.0137 -0.9998 0.0152
vn 0.0088 -0.9998 0.0199
vn 0.0262 -0.9996 0.0145
vn 0.0243 -0.9997 0.0068
vn 0.0228 -0.9997 0.0028
vn 0.0237 -0.9997 0.0051
vn 0.0235 -0.9997 0.0070
vn 0.0084 -1.0000 0.0022
vn 0.0169 -0.9998 -0.0038
vn 0.0054 -0.9999 -0.0103
vn 0.0121 -0.9998 -0.0149
vn -0.0032 -0.9999 -0.0125
vn 0.0009 -1.0000 0.0018
vn 0.0101 -0.9998 0.0183
vn 0.0083 -0.9999 0.0144
vn 0.0075 -0.9998 0.0188
vn 0.0082 -0.9998 0.0167
vn 0.0217 -0.9992 -0.0324
vn 0.0208 -0.9993 -0.0318
vn 0.0053 -0.9997 -0.0233
vn 0.0218 -0.9992 -0.0323
vn 0.0218 -0.9992 -0.0344
vn 0.0217 -0.9992 -0.0336
vn 0.0221 -0.9992 -0.0326
vn 0.0242 -0.9995 -0.0215
vn 0.0200 -0.9992 -0.0337
vn 0.0227 -0.9988 -0.0438
vn 0.0431 -0.9990 -0.0077
vn 0.0307 -0.9995 -0.0069
vn 0.0131 -0.9999 -0.0031
vn 0.0091 -0.9999 0.0059
vn 0.0057 -0.9999 0.0131
vn 0.0069 -0.9999 0.0093
vn 0.0020 -1.0000 0.0049
vn 0.0070 -1.0000 0.0011
vn 0.0132 -0.9999 -0.0005
vn 0.0017 -1.0000 -0.0006
vn 0.0139 -0.9999 -0.0060
vn 0.0171 -0.9998 0.0034
vn 0.0182 -0.9998 0.0038
vn 0.0167 -0.9998 0.0053
vn 0.0152 -0.9999 0.0061
vn 0.0138 -0.9999 0.0078
vn 0.0172 -0.9998 0.0055
vn 0.0173 -0.9998 0.0052
vn -0.0102 -0.9999 0.0104
vn -0.0227 -0.9997 0.0030
vn -0.0272 -0.9995 0.0138
vn -0.0142 -0.9998 0.0136
vn -0.0675 -0.9977 0.0090
vn 0.0115 -0.9999 0.0080
vn 0.0172 -0.9998 0.0052
vn 0.0041 -0.9999 -0.0117
vn -0.0004 -1.0000 -0.0056
vn 0.0032 -1.0000 -0.0035
vn 0.0036 -0.9999 -0.0114
vn 0.0061 -0.9999 -0.0145
vn 0.0024 -0.9999 -0.0131
vn 0.0130 -0.9999 -0.0085
vn 0.0193 -0.9998 -0.0068
vn 0.0180 -0.9998 0.0025
vn 0.0167 -0.9999 0.0020
vn 0.0174 -0.9998 0.0046
vn 0.0176 -0.9998 0.0048
vn 0.0340 -0.9993 0.0173
vn 0.0208 -0.9998 0.0010
vn 0.0165 -0.9999 -0.0043
vn 0.0176 -0.9998 0.0054
vn 0.0233 -0.9997 -0.0024
vn 0.0281 -0.9989 0.0388
vn 0.0595 -0.9981 0.0147
vn 0.0310 -0.9995 0.0047
vn -0.0021 -0.9995 -0.0308
vn -0.0731 -0.9973 -0.0015
vn 0.0096 -0.9999 0.0141
vn -0.0112 -0.9995 0.0295
vn 0.0120 -0.9998 0.0127
vn 0.0068 -0.9999 0.0090
vn 0.0116 -0.9999 0.0086
vn 0.0113 -0.9999 0.0058
vn 0.0108 -0.9999 0.0061
vn 0.0120 -0.9999 0.0086
vn 0.0093 -0.9998 0.0180
vn -0.0018 -1.0000 0.0043
vn -0.0708 -0.9868 0.1455
vn 0.0122 -0.9999 0.0089
vn 0.0121 -0.9999 -0.0105
vn -0.0184 -0.9998 0.0033
vn 0.0149 -0.9998 0.0091
vn 0.0158 -0.9998 0.0072
vn 0.0101 -0.9999 0.0103
vn 0.0090 -0.9999 0.0124
vn 0.0006 -0.9999 0.0167
vn -0.0035 -0.9997 0.0241
vn 0.0024 -1.0000 -0.0006
vn -0.0001 -1.0000 -0.0041
vn 0.0183 -0.9997 -0.0149
vn 0.0171 -0.9998 -0.0097
vn 0.0200 -0.9998 -0.0005
vn 0.0185 -0.9998 0.0011
vn 0.0074 -0.9998 0.0206
vn 0.0082 -0.9998 0.0162
vn -0.0056 -1.0000 0.0063
vn -0.0015 -1.0000 0.0005
vn 0.0030 -0.9999 -0.0103
vn 0.0031 -0.9999 -0.0109
vn 0.0108 -0.9997 -0.0233
vn 0.0090 -0.9997 -0.0210
vn 0.0263 -0.9994 -0.0206
vn 0.0217 -0.9997 -0.0143
vn 0.0202 -0.9998 -0.0013
vn 0.0188 -0.9998 0.0002
vn 0.0356 -0.9994 -0.0012
vn 0.0177 -0.9998 0.0044
vn 0.0012 -1.0000 0.0001
vn 0.0214 -0.9996 -0.0181
vn 0.0210 -0.9998 -0.0025
vn 0.0032 -0.9999 -0.0106
vn 0.0097 -0.9997 -0.0228
vn 0.0285 -0.9992 -0.0273
vn 0.0210 -0.9998 -0.0032
vn 0.0306 -0.9995 -0.0113
usemtl mtl_bee41
s 1
f 1/1/1 2/2/2 3/3/3
f 1/1/1 4/4/4 2/2/2
f 5/5/5 6/6/6 7/7/7
f 6/6/6 5/5/5 8/8/8
f 9/9/9 10/10/10 11/11/11
f 11/11/11 10/10/10 12/12/12
f 11/11/11 13/13/13 9/9/9
f 9/9/9 13/13/13 14/14/14
f 15/15/15 16/16/16 17/17/17
f 17/17/17 16/16/16 18/18/18
f 19/19/19 20/20/20 21/21/21
f 20/20/20 19/19/19 22/22/22
f 23/23/23 24/24/24 25/25/25
f 24/24/24 23/23/23 26/26/26
f 19/19/19 25/25/25 22/22/22
f 25/25/25 19/19/19 23/23/23
f 26/26/26 27/27/27 24/24/24
f 26/26/26 28/28/28 27/27/27
f 26/26/26 29/29/29 28/28/28
f 26/26/26 30/30/30 29/29/29
f 30/30/30 26/26/26 31/31/31
f 32/32/32 33/33/33 34/34/34
f 32/32/32 35/35/35 33/33/33
f 36/36/36 37/37/37 38/38/38
f 38/38/38 37/37/37 39/39/39
f 40/40/40 39/39/39 37/37/37
f 39/39/39 40/40/40 41/41/41
f 37/37/37 36/36/36 42/42/42
f 36/36/36 43/43/43 42/42/42
f 36/36/36 44/44/44 43/43/43
f 37/37/37 45/45/45 46/46/46
f 37/37/37 42/42/42 45/45/45
f 47/47/46 40/40/40 37/37/37
f 40/40/40 47/47/46 48/48/46
f 37/37/37 46/46/46 47/47/46
f 31/31/31 49/49/47 30/30/30
f 49/49/47 31/31/31 50/50/48
f 48/48/46 51/51/46 40/40/40
f 40/40/40 51/51/46 52/52/46
f 31/31/31 53/53/49 50/50/48
f 54/54/50 55/55/51 53/53/49
f 53/53/49 31/31/31 54/54/50
f 52/52/46 56/56/46 40/40/40
f 57/57/52 56/56/46 58/58/53
f 56/56/46 57/57/52 40/40/40
f 59/59/54 60/60/55 61/61/56
f 60/60/55 59/59/54 62/62/57
f 63/63/58 64/64/59 65/65/60
f 63/63/58 65/65/60 66/66/61
f 67/67/62 68/68/63 69/69/64
f 67/67/62 69/69/64 70/70/65
f 66/66/61 65/65/60 68/68/63
f 66/66/61 68/68/63 67/67/62
f 62/62/57 59/59/54 64/64/59
f 62/62/57 64/64/59 63/63/58
f 71/71/66 72/72/46 73/73/46
f 71/71/66 74/74/46 72/72/46
f 74/74/46 71/71/66 75/75/46
f 10/10/10 76/76/67 77/77/68
f 76/76/67 10/10/10 6/6/6
f 6/6/6 8/8/8 76/76/67
f 10/10/10 9/9/9 78/78/69
f 10/10/10 79/79/70 6/6/6
f 69/69/64 75/75/46 71/71/66
f 80/80/71 81/81/72 71/71/66
f 7/7/7 2/2/2 4/4/4
f 7/7/7 4/4/4 82/82/73
f 7/7/7 82/82/73 5/5/5
f 41/41/41 40/40/40 57/57/52
f 83/83/74 21/21/21 20/20/20
f 83/83/74 84/84/75 21/21/21
f 16/16/16 85/85/76 18/18/18
f 86/86/77 85/85/76 16/16/16
f 85/85/76 86/86/77 87/87/78
f 32/32/32 88/88/79 89/89/80
f 88/88/79 32/32/32 90/90/81
f 91/91/82 90/90/81 32/32/32
f 90/90/81 91/91/82 92/92/83
f 32/32/32 34/34/34 91/91/82
f 93/93/84 16/16/16 15/15/15
f 16/16/16 93/93/84 2/2/2
f 2/2/2 93/93/84 3/3/3
f 9/9/9 89/89/80 78/78/69
f 89/89/80 9/9/9 32/32/32
f 94/94/85 9/9/9 14/14/14
f 9/9/9 35/35/35 32/32/32
f 35/35/35 9/9/9 94/94/85
f 57/57/52 58/58/53 61/61/56
f 86/86/77 95/95/86 87/87/78
f 90/90/81 36/36/36 88/88/79
f 88/88/79 36/36/36 38/38/38
f 90/90/81 44/44/44 36/36/36
f 44/44/44 90/90/81 96/96/87
f 96/96/87 90/90/81 92/92/83
f 12/12/12 10/10/10 97/97/88
f 97/97/88 10/10/10 77/77/68
f 73/73/46 98/98/46 71/71/66
f 98/98/46 80/80/71 71/71/66
f 69/69/64 71/71/66 70/70/65
f 57/57/52 61/61/56 60/60/55
f 54/54/50 99/99/89 55/55/51
f 21/21/21 26/26/26 23/23/23
f 21/21/21 23/23/23 19/19/19
f 21/21/21 84/84/75 86/86/77
f 95/95/86 86/86/77 84/84/75
f 79/79/70 7/7/7 6/6/6
f 100/100/90 7/7/7 101/101/91
f 7/7/7 79/79/70 101/101/91
f 101/101/91 102/102/92 100/100/90
f 100/100/90 102/102/92 103/103/93
f 102/102/92 104/104/94 103/103/93
f 103/103/93 104/104/94 105/105/95
f 104/104/94 106/106/96 105/105/95
f 105/105/95 106/106/96 107/107/97
f 106/106/96 108/108/98 107/107/97
f 108/108/98 106/106/96 109/109/99
f 109/109/99 110/110/100 108/108/98
f 110/110/100 109/109/99 111/111/101
f 111/111/101 112/112/102 110/110/100
f 112/112/102 111/111/101 113/113/103
f 113/113/103 114/114/104 112/112/102
f 114/114/104 113/113/103 115/115/105
f 115/115/105 116/116/106 114/114/104
f 116/116/106 115/115/105 117/117/107
f 117/117/107 118/118/108 116/116/106
f 118/118/108 117/117/107 119/119/109
f 119/119/109 120/120/110 118/118/108
f 120/120/110 119/119/109 121/121/111
f 121/121/111 122/122/112 120/120/110
f 122/122/112 121/121/111 123/123/113
f 123/123/113 124/124/114 122/122/112
f 124/124/114 123/123/113 125/125/115
f 71/71/66 124/124/114 125/125/115
f 86/86/77 126/126/116 21/21/21
f 126/126/116 127/127/117 21/21/21
f 21/21/21 127/127/117 26/26/26
f 127/127/117 31/31/31 26/26/26
f 31/31/31 127/127/117 128/128/118
f 54/54/50 31/31/31 128/128/118
f 101/101/91 79/79/70 78/78/69
f 79/79/70 10/10/10 78/78/69
f 78/78/69 89/89/80 101/101/91
f 101/101/91 89/89/80 102/102/92
f 102/102/92 89/89/80 88/88/79
f 102/102/92 88/88/79 104/104/94
f 104/104/94 88/88/79 38/38/38
f 104/104/94 38/38/38 106/106/96
f 38/38/38 39/39/39 106/106/96
f 106/106/96 39/39/39 109/109/99
f 39/39/39 111/111/101 109/109/99
f 111/111/101 39/39/39 41/41/41
f 41/41/41 113/113/103 111/111/101
f 113/113/103 41/41/41 57/57/52
f 7/7/7 100/100/90 2/2/2
f 2/2/2 103/103/93 16/16/16
f 103/103/93 2/2/2 100/100/90
f 103/103/93 105/105/95 16/16/16
f 16/16/16 105/105/95 86/86/77
f 105/105/95 126/126/116 86/86/77
f 126/126/116 105/105/95 107/107/97
f 107/107/97 108/108/98 126/126/116
f 126/126/116 108/108/98 127/127/117
f 108/108/98 128/128/118 127/127/117
f 128/128/118 108/108/98 110/110/100
f 110/110/100 54/54/50 128/128/118
f 54/54/50 110/110/100 112/112/102
f 112/112/102 114/114/104 54/54/50
f 54/54/50 114/114/104 99/99/89
f 114/114/104 129/129/119 99/99/89
f 129/129/119 114/114/104 116/116/106
f 116/116/106 130/130/120 129/129/119
f 130/130/120 116/116/106 118/118/108
f 118/118/108 131/131/121 130/130/120
f 131/131/121 118/118/108 120/120/110
f 120/120/110 132/132/122 131/131/121
f 132/132/122 120/120/110 122/122/112
f 122/122/112 133/133/123 132/132/122
f 133/133/123 122/122/112 124/124/114
f 124/124/114 81/81/72 133/133/123
f 81/81/72 124/124/114 71/71/66
f 57/57/52 115/115/105 113/113/103
f 115/115/105 57/57/52 60/60/55
f 60/60/55 117/117/107 115/115/105
f 117/117/107 60/60/55 62/62/57
f 63/63/58 117/117/107 62/62/57
f 117/117/107 63/63/58 119/119/109
f 63/63/58 121/121/111 119/119/109
f 121/121/111 63/63/58 66/66/61
f 66/66/61 123/123/113 121/121/111
f 123/123/113 66/66/61 67/67/62
f 67/67/62 125/125/115 123/123/113
f 125/125/115 67/67/62 70/70/65
f 71/71/66 125/125/115 70/70/65
